# xmcd
#
# Track frame offsets: 
#        182
#        5697
#        29012
#        30915
#        48720
#        50777
#        71105
#        90272
#        93320
#        113937
#        142777
#        143210
#        164075
#        183622
#        203435
#        206600
#
# Disc length: 3017 seconds
#
# Revision: 0
# Processed by: cddbd v1.5.1PL2 Copyright (c) Steve Scherf et al.
# Submitted via: ExactAudioCopy v0.95a5
#
DISCID=e50bc710
DTITLE=Cyril Neville - The Fire This Time
DYEAR=1996
DGENRE=Blues
TTITLE0=C. Umbuku Neville - Mahalia Jackson Intro
TTITLE1=Genocide
TTITLE2=Ayiti Intro
TTITLE3=Ayiti
TTITLE4=Big Chief Intro
TTITLE5=Big Chief
TTITLE6=Rock With Me
TTITLE7=Aaron Neville Intro
TTITLE8=More Professor Longhair
TTITLE9=Confirmed Reservation
TTITLE10=Congo Square Intro
TTITLE11=Congo Square
TTITLE12=The Fire This Time
TTITLE13=Heart's Desire
TTITLE14=Charles Neville Intro
TTITLE15=Second Line Soca
EXTD=
EXTT0=
EXTT1=
EXTT2=
EXTT3=
EXTT4=
EXTT5=
EXTT6=
EXTT7=
EXTT8=
EXTT9=
EXTT10=
EXTT11=
EXTT12=
EXTT13=
EXTT14=
EXTT15=
PLAYORDER=
